<svg width="50" height="42" viewBox="0 0 50 42" fill="none" xmlns="http://www.w3.org/2000/svg">
<path d="M8.74129 24.8813C7.95751 24.8132 7.18865 24.5856 6.49645 24.2006C5.71481 23.7645 4.72657 23.9538 4.09188 24.5877C3.18671 25.4918 3.34644 27.0382 4.45821 27.6742C5.91288 28.5059 7.56349 28.9335 9.22476 28.9335C10.2556 28.9335 11.2864 28.7527 12.2789 28.4166L8.73916 24.8813H8.74129Z" fill="white" fill-opacity="0.1"/>
<path d="M18.6681 23.422L32.7249 9.38071C34.8505 7.25994 38.3093 7.25781 40.4349 9.38071C41.4593 10.4039 42.0237 11.7716 42.0237 13.2308C42.0237 14.6901 41.4593 16.0578 40.4349 17.081L36.9334 20.578L38.3583 22.0011C38.8758 22.518 39.5382 22.8371 40.256 22.9455L43.2803 19.925C45.0651 18.1424 46.0469 15.7664 46.0469 13.2308C46.0469 10.6953 45.0651 8.31926 43.2803 6.53671C39.5851 2.8461 33.5704 2.8461 29.8752 6.53671L15.8184 20.5759L18.6659 23.4199L18.6681 23.422Z" fill="white" fill-opacity="0.1"/>
<path d="M31.2408 26.266L24.9556 32.5433L9.60813 17.215C7.55711 15.1666 7.30792 11.8333 9.21837 9.65299C11.3141 7.26207 14.971 7.1706 17.1839 9.38071L20.6832 12.8756L23.5308 10.0316L20.0315 6.53671C16.2234 2.73337 9.95316 2.85036 6.29625 6.88344C2.87363 10.657 3.21653 16.5194 6.82232 20.1207L24.9556 38.2313L34.2268 28.9718C33.6773 28.5889 33.1491 28.172 32.6656 27.6891L31.2408 26.266Z" fill="white" fill-opacity="0.1"/>
<path d="M45.8807 24.6537C45.2567 24.0304 44.2834 23.8496 43.5188 24.2878C42.7009 24.7579 41.768 25.0068 40.7926 25.0068C39.3294 25.0068 37.962 24.4431 36.9376 23.422L29.2255 15.7196L26.3779 18.5636L34.09 26.266C37.1889 29.361 41.9193 29.8609 45.5442 27.7657C46.6517 27.1254 46.8136 25.5853 45.9084 24.6813L45.8807 24.6537Z" fill="white" fill-opacity="0.1"/>
</svg>
