<svg width="122" height="80" viewBox="0 0 122 80" fill="none" xmlns="http://www.w3.org/2000/svg">
<g clip-path="url(#clip0_60_259)">
<path d="M4.32212 66.048L4.23479 67.9433H0.701416V45.487H4.49676V54.906C5.63622 53.5638 7.38693 52.8937 9.19728 52.8937C13.3142 52.8937 16.5558 56.3057 16.5558 60.5642C16.5558 64.8228 13.3142 68.2347 9.19728 68.2347C7.15265 68.2347 5.42962 67.4179 4.31999 66.048H4.32212ZM12.7626 60.5642C12.7626 58.1435 10.9224 56.278 8.55834 56.278C6.19423 56.278 4.35406 58.1435 4.35406 60.5642C4.35406 62.9849 6.22192 64.8802 8.55834 64.8802C10.8948 64.8802 12.7626 62.9849 12.7626 60.5642Z" fill="black"/>
<path d="M19.2139 48.4607C19.2139 47.2355 20.2362 46.274 21.4331 46.274C22.6301 46.274 23.6524 47.2355 23.6524 48.4607C23.6524 49.686 22.6599 50.6496 21.4331 50.6496C20.2064 50.6496 19.2139 49.6881 19.2139 48.4607ZM19.5653 53.2447H23.3031V67.9433H19.5653V53.2447Z" fill="black"/>
<path d="M26.9813 71.3276L29.3753 68.9367C30.4849 70.6299 32.2654 71.5616 34.0758 71.5616C36.557 71.5616 38.4568 69.7812 38.4568 67.0691V66.1948C37.4047 67.3924 35.8861 68.0922 33.8713 68.0922C29.5797 68.0922 26.3381 64.8249 26.3381 60.5961C26.3381 56.3674 29.6095 52.9554 33.784 52.9554C35.8563 52.9554 37.4047 53.7127 38.4568 54.9379V53.2468H42.282V67.0712C42.282 71.8254 38.8061 74.9459 34.1929 74.9459C31.5647 74.9459 28.6447 73.7504 26.9792 71.3297L26.9813 71.3276ZM38.574 60.594C38.574 58.2307 36.6763 56.3652 34.3399 56.3652C32.0035 56.3652 30.1356 58.2307 30.1356 60.594C30.1356 62.9573 31.9758 64.8228 34.3399 64.8228C36.704 64.8228 38.574 62.9254 38.574 60.594Z" fill="black"/>
<path d="M45.9324 48.4607C45.9324 47.2355 46.9547 46.274 48.1516 46.274C49.3486 46.274 50.3709 47.2355 50.3709 48.4607C50.3709 49.686 49.3784 50.6496 48.1516 50.6496C46.9249 50.6496 45.9324 49.6881 45.9324 48.4607ZM46.2817 53.2447H50.0195V67.9433H46.2817V53.2447Z" fill="black"/>
<path d="M53.6403 62.4319V53.2447H57.4357V62.4021C57.4357 64.0953 58.5453 64.9398 60.0064 64.9398C61.4674 64.9398 62.6047 64.0953 62.6047 62.4021V53.2447H66.4001V62.4319C66.4001 65.9608 64.0339 68.2369 60.0042 68.2369C55.9746 68.2369 53.6382 65.9629 53.6382 62.4319H53.6403Z" fill="black"/>
<path d="M69.614 65.4354C69.614 63.9485 70.811 62.6063 72.4169 62.6063C74.0227 62.6063 75.2495 63.9762 75.2495 65.4354C75.2495 67.0393 74.0526 68.2347 72.4169 68.2347C70.8685 68.2347 69.614 67.0393 69.614 65.4354Z" fill="black"/>
<path d="M78.8127 45.487H82.5804V67.9433H78.8127V45.487Z" fill="black"/>
<path d="M85.6152 60.5642C85.6152 56.3057 88.9143 52.8937 92.8864 52.8937C94.9886 52.8937 96.5945 53.651 97.6764 54.906V53.2447H101.472V67.9433H97.9384L97.8511 66.048C96.7414 67.4179 95.0759 68.2347 92.8864 68.2347C88.9143 68.2347 85.6152 64.8526 85.6152 60.5642ZM97.7936 60.5642C97.7936 58.2307 95.9534 56.3652 93.617 56.3652C91.2806 56.3652 89.4127 58.2307 89.4127 60.5642C89.4127 62.8977 91.2529 64.793 93.617 64.793C95.9811 64.793 97.7936 62.8977 97.7936 60.5642Z" fill="black"/>
<path d="M109.063 66.048L108.975 67.9433H105.442V45.487H109.237V54.906C110.377 53.5638 112.127 52.8937 113.938 52.8937C118.055 52.8937 121.296 56.3057 121.296 60.5642C121.296 64.8228 118.055 68.2347 113.938 68.2347C111.893 68.2347 110.17 67.4179 109.06 66.048H109.063ZM117.503 60.5642C117.503 58.1435 115.663 56.278 113.299 56.278C110.935 56.278 109.095 58.1435 109.095 60.5642C109.095 62.9849 110.962 64.8802 113.299 64.8802C115.635 64.8802 117.503 62.9849 117.503 60.5642Z" fill="black"/>
<path d="M49.6789 74.9417V75.4734H48.3115V79.949H47.6577V75.4734H46.2839V74.9417H49.6789Z" fill="#DBA4C6"/>
<path d="M53.1249 79.9511L51.93 77.9026H51.1377V79.9511H50.4839V74.9438H52.1026C52.4817 74.9438 52.8011 75.0097 53.0631 75.1373C53.3251 75.2671 53.521 75.4415 53.6488 75.6627C53.7787 75.8818 53.8426 76.135 53.8426 76.4179C53.8426 76.7625 53.7425 77.0667 53.5444 77.3304C53.3464 77.5942 53.0461 77.7686 52.6478 77.8537L53.9065 79.9511H53.1227H53.1249ZM51.1377 77.3772H52.1026C52.4582 77.3772 52.7223 77.29 52.9012 77.1156C53.078 76.9411 53.1675 76.7072 53.1675 76.4157C53.1675 76.1243 53.0801 75.8882 52.9055 75.7265C52.7308 75.5628 52.4625 75.4819 52.1026 75.4819H51.1377V77.3793V77.3772Z" fill="#DBA4C6"/>
<path d="M57.8212 78.8365H55.6339L55.2313 79.949H54.5413L56.3537 74.9693H57.1098L58.9159 79.949H58.2259L57.8233 78.8365H57.8212ZM57.6338 78.3047L56.7265 75.7755L55.8192 78.3047H57.6316H57.6338Z" fill="#DBA4C6"/>
<path d="M64.7921 74.9778V79.9489H64.1383V76.2413L62.4834 79.9489H62.0234L60.3621 76.2349V79.9489H59.7083V74.9778H60.4132L62.2555 79.0874L64.0978 74.9778H64.7964H64.7921Z" fill="#DBA4C6"/>
<path d="M66.5535 75.4734V77.1475H68.3808V77.6857H66.5535V79.4086H68.596V79.9468H65.8975V74.931H68.596V75.4692H66.5535V75.4734Z" fill="#DBA4C6"/>
<path d="M74.4935 75.248C74.8939 75.4522 75.2006 75.7436 75.4136 76.1201C75.6265 76.4987 75.733 76.9433 75.733 77.4559C75.733 77.9686 75.6265 78.411 75.4136 78.7875C75.2006 79.164 74.8939 79.4512 74.4935 79.649C74.0931 79.849 73.6181 79.9468 73.0729 79.9468H71.5117V74.9395H73.0729C73.6202 74.9395 74.0931 75.0416 74.4935 75.2458V75.248ZM74.5552 78.8981C74.896 78.5557 75.0664 78.0749 75.0664 77.4581C75.0664 76.8412 74.8939 76.3498 74.551 75.9988C74.2081 75.65 73.7161 75.4734 73.0729 75.4734H72.1656V79.4108H73.0729C73.7203 79.4108 74.2145 79.2406 74.5552 78.896V78.8981Z" fill="#DBA4C6"/>
<path d="M79.5602 78.8365H77.3729L76.9703 79.949H76.2803L78.0928 74.9693H78.8488L80.6549 79.949H79.9649L79.5623 78.8365H79.5602ZM79.3728 78.3047L78.4655 75.7755L77.5582 78.3047H79.3706H79.3728Z" fill="#DBA4C6"/>
<path d="M84.0201 74.9417V79.949H83.3662V74.9417H84.0201Z" fill="#DBA4C6"/>
<path d="M89.0784 79.9511H88.4245L85.792 75.9627V79.9511H85.1382V74.9352H85.792L88.4245 78.9151V74.9352H89.0784V79.9511Z" fill="#DBA4C6"/>
<path d="M93.1741 75.248C93.5745 75.4522 93.8812 75.7436 94.0942 76.1201C94.3072 76.4987 94.4137 76.9433 94.4137 77.4559C94.4137 77.9686 94.3072 78.411 94.0942 78.7875C93.8812 79.164 93.5745 79.4512 93.1741 79.649C92.7737 79.849 92.2988 79.9468 91.7535 79.9468H90.1924V74.9395H91.7535C92.3009 74.9395 92.7737 75.0416 93.1741 75.2458V75.248ZM93.2359 78.8981C93.5767 78.5557 93.7471 78.0749 93.7471 77.4581C93.7471 76.8412 93.5745 76.3498 93.2316 75.9988C92.8887 75.65 92.3968 75.4734 91.7535 75.4734H90.8462V79.4108H91.7535C92.401 79.4108 92.8951 79.2406 93.2359 78.896V78.8981Z" fill="#DBA4C6"/>
<path d="M96.2795 79.6724C95.8961 79.4555 95.5915 79.1513 95.37 78.7599C95.1464 78.3706 95.0356 77.9303 95.0356 77.441C95.0356 76.9518 95.1464 76.5136 95.37 76.1222C95.5937 75.7308 95.8961 75.4266 96.2795 75.2097C96.6628 74.9927 97.0867 74.8821 97.5531 74.8821C98.0195 74.8821 98.4497 74.9906 98.8331 75.2097C99.2165 75.4266 99.5189 75.7308 99.7383 76.118C99.9577 76.5051 100.068 76.9454 100.068 77.441C100.068 77.9367 99.9577 78.3749 99.7383 78.762C99.5189 79.1491 99.2165 79.4533 98.8331 79.6703C98.4497 79.8873 98.0217 79.9979 97.5531 79.9979C97.0845 79.9979 96.6628 79.8894 96.2795 79.6703V79.6724ZM98.4987 79.1874C98.7799 79.0236 98.9992 78.7918 99.1611 78.4897C99.3208 78.1877 99.4018 77.8388 99.4018 77.441C99.4018 77.0433 99.3208 76.688 99.1611 76.3881C99.0014 76.0882 98.782 75.8563 98.503 75.6947C98.224 75.5309 97.9088 75.45 97.5531 75.45C97.1974 75.45 96.8822 75.5309 96.6032 75.6947C96.3242 75.8584 96.1048 76.0882 95.9451 76.3881C95.7853 76.688 95.7044 77.039 95.7044 77.441C95.7044 77.8431 95.7853 78.1877 95.9451 78.4897C96.1048 78.7918 96.3263 79.0236 96.6074 79.1874C96.8886 79.3512 97.2038 79.4321 97.5531 79.4321C97.9024 79.4321 98.2176 79.3512 98.4987 79.1874Z" fill="#DBA4C6"/>
<path d="M101.636 79.8235C101.374 79.7065 101.169 79.5427 101.02 79.3342C100.871 79.1257 100.795 78.8854 100.79 78.611H101.489C101.512 78.8471 101.61 79.0428 101.781 79.2045C101.951 79.364 102.198 79.4448 102.526 79.4448C102.854 79.4448 103.084 79.3661 103.263 79.2108C103.442 79.0556 103.533 78.8556 103.533 78.611C103.533 78.4195 103.48 78.2643 103.376 78.1451C103.269 78.026 103.139 77.9345 102.98 77.8729C102.822 77.8112 102.607 77.7431 102.339 77.6729C102.009 77.5878 101.742 77.5006 101.544 77.4134C101.344 77.3283 101.176 77.1922 101.033 77.0071C100.89 76.822 100.82 76.5753 100.82 76.2626C100.82 75.9903 100.89 75.7478 101.029 75.5372C101.167 75.3267 101.363 75.1629 101.615 75.048C101.866 74.9331 102.156 74.8757 102.481 74.8757C102.952 74.8757 103.335 74.9927 103.636 75.2267C103.936 75.4628 104.104 75.7734 104.143 76.1605H103.423C103.399 75.9691 103.299 75.7989 103.12 75.6542C102.944 75.5075 102.707 75.4351 102.415 75.4351C102.143 75.4351 101.919 75.5075 101.747 75.6479C101.574 75.7883 101.487 75.9861 101.487 76.2413C101.487 76.4221 101.538 76.5732 101.64 76.688C101.742 76.8029 101.87 76.8901 102.021 76.9497C102.173 77.0092 102.386 77.0773 102.658 77.1539C102.988 77.2453 103.254 77.3347 103.457 77.424C103.659 77.5134 103.832 77.6495 103.974 77.8346C104.117 78.0196 104.189 78.2685 104.189 78.5855C104.189 78.8301 104.126 79.0598 103.996 79.2746C103.866 79.4916 103.674 79.666 103.421 79.8001C103.167 79.9341 102.867 80.0021 102.522 80.0021C102.177 80.0021 101.896 79.9426 101.634 79.8256L101.636 79.8235Z" fill="#DBA4C6"/>
<path d="M105.857 79.8235C105.595 79.7065 105.391 79.5427 105.242 79.3342C105.093 79.1257 105.016 78.8854 105.012 78.611H105.71C105.734 78.8471 105.832 79.0428 106.002 79.2045C106.172 79.364 106.42 79.4448 106.748 79.4448C107.076 79.4448 107.306 79.3661 107.484 79.2108C107.663 79.0556 107.755 78.8556 107.755 78.611C107.755 78.4195 107.702 78.2643 107.597 78.1451C107.491 78.026 107.361 77.9345 107.201 77.8729C107.044 77.8112 106.828 77.7431 106.56 77.6729C106.23 77.5878 105.964 77.5006 105.766 77.4134C105.565 77.3283 105.397 77.1922 105.255 77.0071C105.112 76.822 105.042 76.5753 105.042 76.2626C105.042 75.9903 105.112 75.7478 105.25 75.5372C105.389 75.3267 105.585 75.1629 105.836 75.048C106.087 74.9331 106.377 74.8757 106.703 74.8757C107.173 74.8757 107.557 74.9927 107.857 75.2267C108.157 75.4628 108.326 75.7734 108.364 76.1605H107.644C107.621 75.9691 107.521 75.7989 107.342 75.6542C107.165 75.5075 106.929 75.4351 106.637 75.4351C106.364 75.4351 106.141 75.5075 105.968 75.6479C105.795 75.7883 105.708 75.9861 105.708 76.2413C105.708 76.4221 105.759 76.5732 105.862 76.688C105.964 76.8029 106.092 76.8901 106.243 76.9497C106.394 77.0092 106.607 77.0773 106.88 77.1539C107.21 77.2453 107.476 77.3347 107.678 77.424C107.881 77.5134 108.053 77.6495 108.196 77.8346C108.338 78.0196 108.411 78.2685 108.411 78.5855C108.411 78.8301 108.347 79.0598 108.217 79.2746C108.087 79.4916 107.895 79.666 107.642 79.8001C107.389 79.9341 107.088 80.0021 106.743 80.0021C106.398 80.0021 106.117 79.9426 105.855 79.8256L105.857 79.8235Z" fill="#DBA4C6"/>
<path d="M112.342 78.8365H110.155L109.753 79.949H109.062L110.875 74.9693H111.631L113.437 79.949H112.747L112.345 78.8365H112.342ZM112.155 78.3047L111.248 75.7755L110.34 78.3047H112.153H112.155Z" fill="#DBA4C6"/>
<path d="M116.869 79.9511L115.674 77.9026H114.881V79.9511H114.228V74.9438H115.846C116.225 74.9438 116.545 75.0097 116.807 75.1373C117.069 75.2671 117.265 75.4415 117.392 75.6627C117.522 75.8818 117.586 76.135 117.586 76.4179C117.586 76.7625 117.486 77.0667 117.288 77.3304C117.09 77.5942 116.79 77.7686 116.391 77.8537L117.65 79.9511H116.866H116.869ZM114.881 77.3772H115.846C116.202 77.3772 116.466 77.29 116.645 77.1156C116.822 76.9411 116.911 76.7072 116.911 76.4157C116.911 76.1243 116.824 75.8882 116.649 75.7265C116.475 75.5628 116.206 75.4819 115.846 75.4819H114.881V77.3793V77.3772Z" fill="#DBA4C6"/>
<path d="M119.256 75.4734V77.1475H121.083V77.6857H119.256V79.4086H121.298V79.9468H118.6V74.931H121.298V75.4692H119.256V75.4734Z" fill="#DBA4C6"/>
<path d="M44.742 21.112C43.9582 21.0439 43.1894 20.8163 42.4972 20.4313C41.7155 19.9952 40.7273 20.1845 40.0926 20.8184C39.1874 21.7225 39.3472 23.2689 40.4589 23.9049C41.9136 24.7366 43.5642 25.1642 45.2255 25.1642C46.2563 25.1642 47.2872 24.9834 48.2797 24.6473L44.7399 21.112H44.742Z" fill="#DBA4C6"/>
<path d="M54.669 19.6527L68.7259 5.61142C70.8514 3.49065 74.3103 3.48852 76.4358 5.61142C77.4603 6.63458 78.0247 8.00234 78.0247 9.46156C78.0247 10.9208 77.4603 12.2885 76.4358 13.3117L72.9344 16.8087L74.3593 18.2318C74.8768 18.7487 75.5392 19.0678 76.2569 19.1763L79.2813 16.1557C81.0661 14.3732 82.0479 11.9971 82.0479 9.46156C82.0479 6.926 81.0661 4.54997 79.2813 2.76742C75.586 -0.923185 69.5714 -0.923185 65.8762 2.76742L51.8193 16.8066L54.6669 19.6506L54.669 19.6527Z" fill="#DBA4C6"/>
<path d="M67.2415 22.4967L60.9564 28.774L45.6089 13.4457C43.5578 11.3973 43.3087 8.06403 45.2191 5.8837C47.3149 3.49278 50.9718 3.40132 53.1846 5.61142L56.6839 9.10633L59.5315 6.26233L56.0322 2.76743C52.2241 -1.03592 45.9539 -0.918926 42.297 3.11415C38.8744 6.88772 39.2173 12.7501 42.8231 16.3514L60.9564 34.462L70.2275 25.2025C69.678 24.8196 69.1498 24.4027 68.6663 23.9198L67.2415 22.4967Z" fill="#DBA4C6"/>
<path d="M81.8817 20.8844C81.2577 20.2611 80.2843 20.0803 79.5197 20.5185C78.7019 20.9886 77.769 21.2375 76.7936 21.2375C75.3304 21.2375 73.963 20.6738 72.9386 19.6527L65.2265 11.9503L62.3789 14.7943L70.091 22.4967C73.1899 25.5917 77.9202 26.0916 81.5452 23.9964C82.6527 23.3561 82.8146 21.8161 81.9094 20.912L81.8817 20.8844Z" fill="#DBA4C6"/>
</g>
<defs>
<clipPath id="clip0_60_259">
<rect width="120.597" height="80" fill="white" transform="translate(0.701416)"/>
</clipPath>
</defs>
</svg>
