<svg width="800" height="800" viewBox="0 0 800 800" fill="none" xmlns="http://www.w3.org/2000/svg">
<path d="M139.79 462.117C127.246 461.028 114.941 457.385 103.863 451.223C91.3528 444.244 75.5366 447.274 65.3789 457.419C50.8921 471.888 53.4486 496.637 71.2418 506.816C94.5228 520.127 120.94 526.97 147.527 526.97C164.025 526.97 180.523 524.076 196.407 518.698L139.756 462.117H139.79Z" fill="#DBA4C6"/>
<path d="M298.665 438.763L523.636 214.041C557.654 180.099 613.011 180.065 647.029 214.041C663.424 230.416 672.457 252.306 672.457 275.66C672.457 299.014 663.424 320.904 647.029 337.279L590.991 393.247L613.794 416.022C622.077 424.294 632.678 429.401 644.166 431.137L692.568 382.795C721.133 354.267 736.847 316.24 736.847 275.66C736.847 235.08 721.133 197.053 692.568 168.524C633.428 109.459 537.168 109.459 478.028 168.524L253.058 393.213L298.631 438.729L298.665 438.763Z" fill="#DBA4C6"/>
<path d="M499.879 484.279L399.29 584.742L153.663 339.424C120.838 306.64 116.85 253.293 147.425 218.398C180.966 180.133 239.493 178.669 274.909 214.041L330.913 269.975L376.486 224.458L320.482 168.524C259.536 107.654 159.185 109.527 100.659 174.074C45.8817 234.467 51.3697 328.291 109.078 385.927L399.29 675.775L547.668 527.583C538.874 521.455 530.421 514.783 522.683 507.055L499.879 484.279Z" fill="#DBA4C6"/>
<path d="M734.186 458.474C724.199 448.499 708.621 445.606 696.384 452.619C683.295 460.142 668.365 464.126 652.754 464.126C629.336 464.126 607.453 455.104 591.057 438.763L467.63 315.491L422.057 361.007L545.484 484.279C595.079 533.813 670.785 541.813 728.801 508.28C746.526 498.033 749.116 473.385 734.629 458.917L734.186 458.474Z" fill="#DBA4C6"/>
</svg>
